<svg xmlns="http://www.w3.org/2000/svg" viewBox="0 0 1200 1200"><path d="M360.792 428.035v49.813s-36.78-2.962-31.023 28.074c5.757 31.037 24.507 33.498 44.929 23.815 0 0 35.262 154.643 223.896 141.235 199.525-7.175 219.947-141.235 219.947-141.235s35.739 14.313 41.866-21.426c6.127-35.739-30.123-27.059-30.123-27.059l1.021-49.013c0-.001-198.168-71.716-470.513-4.204zm180.004 335.043s-11.741 47.888-3.572 57.896c8.169 10.008 40.003 16.557 50.89 3.072 0 0-6.26-29.319 12.592-50.246 24.377-27.059-49.085-21.285-59.91-10.722zm351.775-87.815s-52.077-17.359-59.224-35.228c-7.148-17.869-6.127-49.013 22.464-42.376 0 0 22.468-27.066 40.844 2.342 0 0 15.482-26.831 27.57-8.041 12.089 18.789-13.784 69.518-31.654 83.303z" fill="#EBB29B"/><path d="M420.307 525.33c10.551 31.654 26.379 68.585 65.947 73.86 31.654 7.914 68.585-13.189 94.963-7.914 71.223 13.189 163.548 18.465 192.565-58.033 10.672-30.492 21.313-74.189 17.725-112.273-65.2-15.662-205.453-38.379-382.772-3.568-11.81 34.182.758 75.485 11.572 107.928zm166.186 276.976c.444-.111.919-.216 1.406-.319 1.364-8.998 4.837-19.339 12.807-28.187 24.377-27.059-49.085-21.285-59.91-10.722 0 0-3.458 14.121-5.314 28.628 15 9.735 34.081 13.986 51.011 10.6zm306.078-127.043s-52.077-17.359-59.224-35.228c-7.148-17.869-6.127-49.013 22.464-42.376 0 0 22.468-27.066 40.844 2.342 0 0 15.482-26.831 27.57-8.041 12.089 18.789-13.784 69.518-31.654 83.303z" fill="#F0CAB4"/><path fill="#755840" d="M600.706 558.362s-24.509-16.525-53.1-2.91c-28.591 13.615-57.925 42.018-78.316 39.048 0 0 55.769 59.659 130.153 12.007 0 0 63.208 42.887 129.24-11.573 0 0-31.754-12.282-71.478-36.573-25.868-15.817-56.499.001-56.499.001z"/><path fill="#896A4C" d="M594.407 586.001c37.367 8.897 73.521 9.367 102.01-5.826a548.648 548.648 0 01-39.212-21.812c-25.868-15.818-56.499 0-56.499 0s-24.509-16.525-53.1-2.91c-15.101 7.191-30.408 18.505-44.497 27.146 7.699 5.181 17.215 8.604 25.351 11.316 23.741 7.913 55.395-10.552 65.947-7.914z"/><g fill="#E6988F"><ellipse cx="469.942" cy="534.16" rx="33.553" ry="22.473"/><ellipse cx="741.642" cy="534.16" rx="33.553" ry="22.473"/></g><path d="M831.305 432.238s-224.376-73.076-470.513-4.203l-9.228-91.781s-54.532-166.01 117.726-232.768 232.199-53.913 322.927 4.833 158.387 113.57 150.218 227.935c-8.168 101.098-111.13 95.984-111.13 95.984zm-367.09 212.391s125.539 57.182 270.566 0c0 0 37.937 45.62 70.111 41.999 32.173-3.622 41.396-33.095 41.396-33.095l51.9 25.874s-4.453 41.178-19.707 51.192c0 0-242.417-58.293-270.491 29.526 0 0-42.689-22.935-67.194 7.878 0 0-17.357 42.451-3.572 52.97 13.785 10.519 31.654 18.688 53.608 6.434 0 0 74.482 64.053 183.26 49.386 0 0 10.2 151.773 1.103 172.196-9.097 20.422-77.367 35.739-77.367 35.739l-14.461 30.306-59.538-7.623-5.338-21.663h-49.513s2.427 29.979-8.792 29.285c-11.219-.694-59.579 14.313-93.141-50.59 0 0-49.003-15.455-51.444-36.899s-58.799-70.538-23.983-163.929c0 0-23.259-40.754 13.948-70.646 0 0-15.26-52.551 0-83.72s58.649-64.62 58.649-64.62z" fill="#E5E0B9"/><path d="M623.423 314.3c-13.189-7.914-29.017-18.465-42.206-31.654 36.93-21.103 76.498-2.638 113.428-29.017 13.189-10.551 29.017-18.465 34.292-31.654 15.827-39.568 29.017-87.05 7.914-123.98-8.003-13.338-18.203-23.633-29.865-31.711-57.428-16.445-122.257-7.472-237.045 36.952-43.6 44.002-62.803 114.598-57.548 179.41 2.225 40.047-19.944 89.477-12.696 135.628 165.79-37.099 316.483-13.569 387.947 2.54-21.886-59.544-109.277-75.459-164.221-106.514zm15.827 667.381c-39.568-34.292-94.963-31.654-147.721-47.482-23.741-5.276-50.12-26.379-55.395-58.033 23.741-2.638 47.482-29.017 31.654-39.568-18.545-14.424-43.505-25.655-63.611-42.442-35.173 29.773-12.561 69.461-12.561 69.461-34.816 93.391 21.542 142.486 23.983 163.929 2.441 21.443 51.444 36.899 51.444 36.899.064.125.131.236.196.359 33.968 7.578 67.937 15.346 101.905 24.23a79.36 79.36 0 00-.167-3.285h49.513l.512 2.079c25.89 1.798 52.915-7.262 79.3-3.209 2.486-.575 15.098-3.567 29.498-8.307-16.643-39.203-56.725-68.11-88.55-94.631zm-107.12-180.38c1.366-15.426 8.666-33.297 8.666-33.297a46.82 46.82 0 012.712-3.096c-17.582-3.697-34.323-11.299-44.065-25.911-17.143-28.572-23.289-62.641-40.275-90.298-11.872 9.822-41.531 35.893-53.604 60.552-7.44 15.198-7.619 35.468-5.855 52.262 30.966 39.562 83.723 50.179 132.421 39.788zm314.157-147.768s-9.222 29.473-41.395 33.095c-4.403.496-8.913.044-13.419-1.061-7.187 11.291-15.874 21.238-26.217 27.626 59.676 4.532 113.225 17.406 113.225 17.406 15.254-10.014 19.707-51.192 19.707-51.192l-51.901-25.874z" fill="#F7F4DB"/><path fill="#3B694D" d="M834.453 406.625c-143.211-57.803-322.818-53.459-476.844-10.252l3.183 31.662c246.137-68.873 470.513 4.203 470.513 4.203s2.156.105 5.854-.017c1.922-12.651 2.699-23.414-2.706-25.596z"/><path fill="#467C5A" d="M398.985 385.868c-1.186 11.047-2.118 21.943-2.011 33.011 161.272-36.7 308.596-15.787 383.161.281-5.969-13.483-13.633-26.143-23.146-37.106-113.67-27.276-241.311-22.882-358.004 3.814z"/><path fill="#A12A28" d="M697.829 340.338c44.582 11.608 81.229 31.995 128.711 29.357-7.914-26.379-39.568-42.206-63.309-52.757-15.827-5.276-34.952 1.447-50.779-3.829-68.228-4.107-144.423-51.566-223.559-41.015-50.769 9.231-103.556 20.481-138.936 58.475.946 3.669 1.608 5.685 1.608 5.685l2.053 20.421c135.344-36.432 223.94-47.651 344.211-16.337z"/><path fill="#BE2C2C" d="M610.785 288.902c-39.325-11.822-80.2-22.367-121.893-16.808-25.395 4.617-51.294 9.74-75.268 18.462-4.34 17.884-7.879 35.767-11.197 53.651 99.018-23.667 174.816-30.113 266.5-10.703-22.658-9.673-41.558-25.885-58.142-44.602z"/><path fill="#A12A28" d="M503.109 661.496c-1.48-.534 6.194 36.024 50.863 33.115 0 0-17.258 43.28 7.249 51.449 17.699 5.657 36.875-24.661 36.875-24.661s16.971 24.153 45.141 7.136c28.17-17.017 16.692-30.808 16.692-30.808s45.885-7.526 52.523-45.87c-.001.001-96.589 50.331-209.343 9.639z"/><path fill="#B38436" d="M636.613 815.495c92.326 39.568 192.565 47.482 290.166 21.103 31.136-7.326 62.256-26.108 77.499-55.442-2.321.202-3.979.651-3.979.651s10.211-34.875-42.887-39.566c-53.098-4.69-219.327-29.012-244.961-26.041-25.634 2.971-95.125-5.198-98.671 47.899 0 0-.76.54-2.006 1.524.27 20.32 5.358 40.132 24.839 49.872z"/><path fill="#C5984C" d="M957.412 742.241c-53.098-4.69-219.327-29.012-244.961-26.041-23.737 2.751-85.044-4.013-96.807 37.13 4.603 28.656 30.861 50.235 55.261 56.89 89.688 29.017 182.013 13.189 276.976-2.638 21.068-4.515 40.407-16.764 53.144-34.283-.646-10.641-7.416-27.86-43.613-31.058zM696.759 783.96c-37.407-9.549-33.912-45.601-10.026-47.601 87.05-7.914 279.87 26.274 258.511 36.93-87.05 58.034-218.25 15.535-248.485 10.671z"/><path fill="#EACA69" d="M683.368 787.955c64.92 20.394 135.427 24.412 204.824 12.871 77.388-12.871 70.359-31.315 32.756-34.687-37.603-3.372-170.793-29.857-212.859-24.98-30.445 3.53-81.163 26.845-24.721 46.796z"/><path d="M404.178 794.156s-167.002-26.602-199.788-47.393c-32.785-20.791-31.192-47.433 11.694-37.513 42.887 9.92 175.533 45.018 175.533 45.018l12.561 39.888zm615.522.648c.099-13.114-9.72-14.144-15.423-13.648-15.243 29.334-46.362 48.116-77.499 55.442-97.601 26.379-197.84 18.465-290.166-21.103-19.481-9.74-24.569-29.552-24.839-49.872-9.181 7.255-45.548 39.396-11.068 69.208 23.124 53.844 336.177 50.258 336.177 50.258s86.902-52.433 82.818-90.285z" fill="#8B5D36"/><path d="M391.618 754.268S258.972 719.17 216.085 709.25c-23.965-5.543-35.024.334-34.407 10.223 56.723 41.622 147.649 41.983 217.873 59.985l-7.933-25.19zm628.082 40.536c.099-13.114-9.72-14.144-15.423-13.648-15.243 29.334-46.362 48.116-77.499 55.442-63.77 17.235-128.665 19.823-191.744 8.515 56.469 25.523 125.303 24.576 189.106 33.69 5.466 0 9.664 2.536 13.482 5.831 8.163-5.028 85.948-53.96 82.078-89.83z" fill="#AB7141"/><path d="M780.845 750.364c-6.192 3.288-9.407 10.608-4.981 16.781 4.506 6.284 13.927 7.655 21.029 6.686.268-.037.55-.087.831-.136 9.822.592 19.811-2.398 22.008-11.251 4.251-17.126-30.126-16.732-38.887-12.08zm-91.893 5.608c-6.98-4.55-16.058-9.859-24.28-5.116-15.876 9.159 1.757 27.986 15.525 28.17 1.588.413 3.168.773 4.697 1.018 6.06.975 16.3 1.71 17.887-6.389 1.599-8.165-8.197-14.012-13.829-17.683zm216.058 1.156c-8.001-2.338-31.683-4.174-28.532 10.486 2.077 9.665 13.196 14.915 23.448 16.56.989.419 1.995.813 3.028 1.166 5.341 1.829 12.533 3.946 16.75-1.153 8.874-10.73-4.918-24.202-14.694-27.059z" fill="#CC4538"/><path d="M865.156 789.166c-8.323-5.964-19.729-6.621-29.517-5.232-4.167.591-5.581 4.868-4.53 7.851.304 5.98 5.203 11.758 10.238 14.617 4.775 2.71 10.289 3.588 15.706 3.825 4.069.177 9.839.928 13.16-2.026 6.29-5.596.257-15.226-5.057-19.035zM742.391 760.55a4.382 4.382 0 002.332-1.157c3.931.045 7.377-3.018 8.076-7.069 1.67-9.683-12.532-17.926-19.995-20.733-10.379-3.904-18.024 3.882-14.074 14.081 3.5 9.037 13.715 16.496 23.661 14.878zm26.88 30.293c-1.195-.398-2.398-.764-3.601-1.13-7.792-4.738-22.907-8.981-28.642-.339-2.407 3.626-1.739 8.301 1.005 11.581 3.595 4.297 9.558 4.713 14.698 5.579 7.582 1.277 24.898 6.594 26.405-5.948.795-6.618-4.726-8.034-9.865-9.743z" fill="#879433"/><path d="M849.3 754.173c-3.072-.924-7.032-1.584-10.191-.741-3.891 1.039-6.517 4.813-5.383 8.859.845 3.018 2.913 5.04 5.46 6.175 4.051 3.149 9.794 4.421 14.346 1.946 3.19-1.734 4.644-5.432 3.804-8.903-.948-3.912-4.384-6.238-8.036-7.336zm-125.902 10.073c-8.075 1.896-7.444 12.378-.651 15.499 4.144 1.904 9.637 2.332 13.393.051.051-.029.102-.042.154-.072a7.283 7.283 0 003.054-3.478 9.6 9.6 0 00.652-1.714c.359-1.344.029-2.708-.701-3.85-2.318-5.255-10.934-7.601-15.901-6.436zm-20.735-25.925c-3.3-2.612-8.444-4.614-12.352-2.101-4.083 2.625-4.469 9.723.074 12.174.079.043.168.079.25.12 1.691 2.098 3.897 3.781 6.468 4.625 4.129 1.355 8.674-.06 9.844-4.609 1.022-3.979-1.26-7.816-4.284-10.209zm107.605 47.945c-1.036.118-1.9.461-2.571.985-.17.075-.348.144-.515.221-3.622 1.662-8.234 3.561-7.941 8.395.293 4.824 5.653 6.85 9.793 6.166 2.66-.439 4.793-1.782 6.679-3.502 2.049-1.296 3.751-3.298 4.853-5.724.706-1.554.068-3.622-1.003-4.828-2.542-2.862-6.029-2.731-9.295-1.713zm84.679-4.046c-4.777-2.085-11.997-1.867-15.747 2.188-2.04 2.206-2.427 5.684-.896 8.282 1.506 2.555 3.971 3.496 6.701 3.254 3.332.964 6.668 1.227 10.088-.694 2.513-1.412 4.786-3.841 4.657-6.904-.124-2.947-2.232-5.004-4.803-6.126zm-116.405-43.324c-2.352-.898-5.096-.85-7.549-.494-2.78.403-5.412 1.706-6.792 4.244-1.418 2.607-.814 5.749.974 7.997 3.855 4.846 10.434 3.413 14.491-.335.438-.404.75-.847.993-1.304.742-.681 1.343-1.508 1.702-2.521 1.112-3.138-.846-6.452-3.819-7.587zm-275.475 371.36l51.095 5.083s24.773 32.305-19.828 28.954c-44.601-3.351-49.938-16.338-31.267-34.037zm126.771 0l54.814 2.087s22.311 33.8-26.734 32.194c-49.046-1.605-28.08-34.281-28.08-34.281z" fill="#3E3239"/><path fill="#3F2019" d="M481.463 521.844c1.68-1.057 16.889-9.901 32.708 5.627a7.887 7.887 0 005.544 2.266 7.915 7.915 0 005.544-13.562c-20.277-19.9-43.153-13.675-52.414-7.607-3.632 2.38-4.636 7.223-2.289 10.876 2.349 3.655 7.231 4.714 10.907 2.4z"/><path fill="#442C26" d="M659.599 631.674c48.15 0 78.352-33.091 81.053-36.171a43.9 43.9 0 005.487-4.284c.399-.365.76-.769 1.077-1.208 6.685-9.253 6.064-16.386 4.366-20.741-3.841-9.843-15.564-12.499-16.889-12.769-4.292-.867-8.465 1.888-9.338 6.171a7.916 7.916 0 006.17 9.337c1.579.322 4.83 1.781 5.312 3.013.152.393.057 2.034-1.989 5.062-11.371 9.877-21.646 4.687-45.359-11.127-8.931-5.957-19.055-12.709-30.232-18.027-29.612-14.086-49.637-7.245-58.55-2.297-8.914-4.948-28.941-11.789-58.548 2.297-11.18 5.318-21.303 12.07-30.234 18.027-23.712 15.816-33.993 21.003-45.36 11.127-2.04-3.019-2.141-4.66-1.99-5.055.424-1.113 3.287-2.57 5.313-3.019 4.283-.875 7.046-5.055 6.171-9.337s-5.062-7.04-9.337-6.171c-1.325.27-13.052 2.926-16.89 12.769-1.699 4.355-2.32 11.488 4.365 20.741a7.88 7.88 0 001.077 1.209 43.825 43.825 0 005.488 4.285c2.706 3.089 32.9 36.17 81.053 36.17 17.431 0 37.213-4.342 58.892-16.011 21.682 11.669 41.458 16.009 58.892 16.009zm-170.637-32.389c10.675-3.113 21.297-10.196 31.744-17.164 8.9-5.935 18.103-12.074 28.25-16.901 30.113-14.324 45.69-1.87 46.509-1.186.567.496 1.196.861 1.845 1.167.047.023.095.042.143.064a7.84 7.84 0 001.208.432c.127.034.253.059.381.087.332.07.663.125 1 .152.227.02.453.023.682.023.236-.002.469-.006.703-.028.328-.028.649-.083.972-.152.135-.03.267-.058.401-.095a7.802 7.802 0 001.176-.425c.053-.024.107-.047.16-.073.665-.317 1.309-.697 1.886-1.214.152-.134 16.056-13.202 46.436 1.249 10.147 4.828 19.351 10.966 28.251 16.903 10.449 6.969 21.069 14.051 31.744 17.164-19.762 13.624-56.533 28.443-105.055 1.944a7.883 7.883 0 00-6.678-2.833 7.879 7.879 0 00-6.703 2.833c-48.521 26.492-85.292 11.675-105.055-1.947z"/><path fill="#3F2019" d="M684.336 529.737a7.885 7.885 0 005.544-2.266c15.799-15.505 30.979-6.713 32.7-5.633 3.648 2.358 8.524 1.324 10.904-2.313a7.913 7.913 0 00-2.28-10.957c-9.261-6.07-32.134-12.29-52.412 7.607a7.913 7.913 0 00-.103 11.192 7.889 7.889 0 005.647 2.37z"/><path fill="#3F2019" d="M1006.921 776.319c.265-2.704.264-5.321-.009-7.808-1.718-15.616-13.555-26.912-29.457-28.107-16.86-1.269-49.514-5.966-85.255-11.378 10.367-19.726 12.727-46.919 12.839-48.278a7.896 7.896 0 00-1.792-5.668c18.824-16.758 32.203-47.228 33.431-68.331.845-14.517-4.021-21.869-8.254-25.48-6.96-5.938-13.31-5.688-17.404-4.421-6.01 1.853-10.513 7.034-13.717 12.449-7.651-9.294-18.692-16.573-31.58-11.232-7.955 3.295-11.466 7.76-12.939 11.614-5.09-1.2-10.312-.788-14.993 1.274-5.603 2.464-13.058 8.482-16.757 23.155-5.002 19.843 8.864 35.223 15.604 41.316-.824 4.912-4.744 15.532-22.806 22.997-16.852 6.966-48.588-16.139-67.928-35.057a188.519 188.519 0 0020.418-15.807c25.457-22.685 44.217-52.02 56.317-87.611 3.212.938 8.193 2.053 13.77 2.053 5.575 0 11.729-1.115 17.265-4.641 9.235-5.882 14.266-16.556 14.954-31.727.708-15.642-3.3-26.402-11.909-31.983-6.341-4.107-13.62-4.315-19.696-3.33.821-8.571 1.435-17.332 1.715-26.391 56.474-4.298 84.39-36.072 97.928-62.609 27.309-53.53 16.994-124.778-8.753-162.734-44.107-65.023-139.596-130.12-207.047-158.356-34.419-14.41-94.216-13.55-159.962 2.3-67.677 16.314-128.814 45.025-167.735 78.773-83.939 72.781-52.019 198.46-50.619 203.774.634 2.408 2.327 4.23 4.435 5.174-5.94 33.461 3.192 71.568 4.965 78.443-.03 14.492.668 28.372 2.018 41.692-6.613-1.101-14.707-.951-21.571 3.62-8.581 5.711-12.56 16.359-11.828 31.648.708 14.794 5.741 25.328 14.959 31.307 5.927 3.843 12.623 5.04 18.665 5.04 6.138 0 11.59-1.234 14.883-2.183 12.077 33.732 30.481 61.845 55.202 84.022 9.209 8.261 18.862 15.299 28.704 21.333-18.272 16.371-59.128 56.472-62.165 90.228a377.512 377.512 0 00-.763 9.56c-30.649-7.733-126.592-31.999-157.091-40.395-23.46-6.461-50.95-6.494-59.492 7.993-3.61 6.121-4.99 16.415 8.948 30.683 22.089 22.611 151.658 49.195 203.121 59.016-6.586 14.925-16.194 43.64-3.863 63.478-.145.325-.299.644-.402.994-.961 3.297-23.032 81.55 21.586 146.507.229.334.517.597.785.884 1.973 15.641 4.863 27.904 9.044 33.406 4.788 6.302 21.986 13.879 45.672 21.142l36.329 40.402c-5.347 5.662-12.581 15.666-8.964 25.666 4.92 13.596 25.195 15.224 40.019 15.266h.56c25.164 0 38.723-4.82 42.641-15.155 2.55-6.726-.129-13.234-3.28-17.937.33-.063.642-.102.974-.168a7.912 7.912 0 006.265-6.448l2.998-17.812c1.431.163 2.865.331 4.29.483a627.682 627.682 0 0031.15 2.554l1.551 14.691a7.905 7.905 0 005.429 6.68c-3.157 4.704-5.847 11.222-3.293 17.957 3.918 10.335 17.473 15.155 42.641 15.155h.562c15.108-.041 35.712-1.633 40.197-14.915 2.455-7.277-1.21-14.377-5.459-19.641a7.902 7.902 0 001.342-2.263l6.201-16.286c.64-1.68.642-3.432.171-5.032 30.724-5.114 59.032-15.118 79.743-32.797 6.028-4.776 12.053-16.945 8.447-94.925-1.53-33.067-4.318-65.518-5.298-76.402 19.024 1.126 39.035 2.208 58.154 3.059 28.573 1.273 48.937 1.759 63.546 1.759 32.592 0 36.528-2.424 38.996-3.941 12.713-7.829 76.132-59.313 78.827-61.5a7.948 7.948 0 002.434-3.4c.86-2.329 8.127-23.153-1.522-37.056-2.8-4.03-7.929-8.69-17.092-10.342zm-15.744-6.077c1.468 13.339-10.683 40.351-65.532 56.961-89.242 27.025-270.085 7.388-295.408-24.027-9.359-11.608-16.883-31.142-7.293-47.999 6.126-10.77 26.832-31.531 95.242-31.531 19.058 0 41.83 1.613 69.007 5.502 20.258 2.898 44.548 6.628 68.036 10.237 48.285 7.414 98.214 15.083 121.041 16.798 8.436.638 14.01 5.89 14.907 14.059zm-381.992-22.891a48.187 48.187 0 00-2.172 4.366c-1.926-1.659-4.073-3.085-6.486-4.193-4.529-2.079-9.625-3.006-14.903-3.167 4.819-4.318 9.076-9.312 12.446-13.757 4.35 4.004 9.602 7.329 15.709 9.98a53.398 53.398 0 00-4.594 6.771zm-27.501 75.357c-27.269 5.539-37.755-7.865-38.356-8.671a7.867 7.867 0 00-2.531-2.268c.429-11.631 1.99-27.717 6.78-42 10.651-4.831 34.387-13.36 46.357-7.858 2.468 1.136 4.271 2.849 5.51 5.278-21.23 25.029-20.955 44.465-17.76 55.519zm-56.873-1.677c-8.371.467-16.26.631-23.758.554.117-5.119 1.615-26.902 17.769-53.581a81.797 81.797 0 0011.851 2.949c-5.275 19.171-5.956 39.285-5.862 50.078zm-10.224-150.059c14.065 3.654 27.444 5.859 39.385 7.136a190.81 190.81 0 00-3.647 9.012c-16.626.73-28.273-7.642-35.738-16.148zm138.316 6.455c13.658-1.845 29.017-5.068 44.925-10.479-12.018 12.773-27.807 19.744-36.277 22.792a50.416 50.416 0 00-8.648-12.313zm-24.423 2.113a7.887 7.887 0 001.589.785c.218.074 21.499 7.932 21.504 36.155-10.225 3.365-18.383 7.498-24.854 12.055-.008-.002-.015-.007-.022-.009-12.105-3.627-20.387-9.83-24.617-18.437-5.629-11.456-3.144-24.813-1.482-30.957.503-.039.955-.076 1.36-.111 3.059.279 9.022.701 17.191.701 2.855 0 5.982-.054 9.331-.182zm-40.671 37.396c.092.189.211.358.305.545-.097.122-.212.22-.303.349-11.577 16.417-21.154 21.719-24.791 21.234-1.946-.245-3.399-3.349-4.092-5.178-4.665-12.308 4.757-39.877 11.793-54.362.019-.038.025-.079.043-.117 4.739.224 9.109.318 12.994.318l.444-.002c-1.863 9.268-2.961 23.735 3.607 37.213zm262.86-52.884l38.028 20.482c-1.44 10.765-5.219 29.323-12.517 40.635-22.888-6.839-35.042-31.971-39.115-42.162 7.679-6.337 11.613-13.205 13.604-18.955zm-14.287-46.075c1.667-6.61 4.431-11.062 7.782-12.538 2.926-1.285 5.907-.204 7.352.51.729 1.45.92 5.77 1.015 7.903.237 5.348.505 11.412 5.922 14.271 1.855.982 5.69 2.174 10.539-.829 3.733-2.313 6.121-5.737 6.909-9.902 1.597-8.447-4.24-16.784-5.425-18.37a7.978 7.978 0 00-1.054-1.15c-.523-.468-1.582-1.896-1.775-2.653.273-.34 1.27-1.345 4.135-2.532 8.328-3.457 17.643 12.495 19.678 16.939 1.373 3.035 4.49 4.902 7.826 4.616a7.917 7.917 0 007.012-5.786c2.112-7.642 6.672-15.652 9.385-16.484.335-.09 1.226.281 2.468 1.337 2.061 1.758 3.081 6.44 2.728 12.522-1.105 18.965-15.059 48.624-32.23 60.699l-39.63-21.344c-2.268-1.81-16.089-13.517-12.637-27.209zm-29.369 77.513c4.446 0 8.771-.75 12.862-2.442a79.255 79.255 0 003.537-1.559c3.286 7.72 9.377 19.548 18.95 29.909-18.557-2.842-36.972-5.634-52.928-7.918-55.414-7.93-94.532-6.935-122.144-1.164a64.9 64.9 0 00-.856-7.484c13.5-4.743 42.709-17.903 56.278-46.358.323-.676.504-1.377.624-2.08a199.574 199.574 0 008.678-4.537c10.348 10.477 45.437 43.638 74.999 43.633zM604.114 393.368c-.054-.001-.104-.016-.157-.016-.659 0-1.323.005-1.984.007-.625-.002-1.254-.007-1.878-.007-.051 0-.098.014-.149.015-92.636.546-204.489 19.711-234.11 25.091-4.686-22.005-15.422-88.615 22.62-102.466 8.589-3.126 17.142-6.721 26.198-10.526 46.899-19.705 100.06-42.038 186.6-10.608 70.141 25.473 121.55 33.952 162.577 25.449 6.088 7.192 18.147 19.334 36.656 28.948-.059 2.153.726 4.323 2.391 5.934.885.856 20.383 20.241 20.515 62.875-30.936-5.876-133.718-24.133-219.279-24.696zm244.018 93.577c3.442 2.251 5.106 8.634 4.683 17.97-.438 9.69-2.996 16.104-7.602 19.065-5.366 3.454-13.418 2.174-17.95.854 3.279-11.955 5.888-24.534 7.781-37.768 3.975-1.293 9.65-2.366 13.088-.121zM403.536 153.26c82.077-71.163 247.582-105.061 311.218-78.433 65.344 27.356 157.669 90.15 200.061 152.642 22.664 33.411 32.072 98.982 7.751 146.657-16.333 32.018-45.144 50.535-83.619 53.909l.002-.162c1.895-32.908-6.504-55.59-14.113-69.055 2.719.754 5.517 1.443 8.414 2.04a7.919 7.919 0 009.351-6.151 7.915 7.915 0 00-6.152-9.348c-27.197-5.611-45.55-19.955-55.424-29.818 13.869-4.876 26.539-11.971 38.383-21.333a7.914 7.914 0 001.301-11.116 7.911 7.911 0 00-11.116-1.301c-12.24 9.674-25.598 16.62-40.622 20.859-2.384-1.067-5.238-.948-7.584.597-.692.455-1.256 1.022-1.752 1.632-37.957 7.576-86.307-.683-152.978-24.896-92.371-33.541-151.013-8.905-198.134 10.893-8.874 3.729-17.257 7.25-25.484 10.246-13.355 4.862-22.278 13.892-28.124 24.975-5.498-34.434-11.851-120.404 48.621-172.837zm-59.397 370.42c-4.7-3.049-7.312-9.368-7.763-18.785-.307-6.41.27-14.685 4.767-17.701 3.881-2.605 10.443-1.434 14.904-.044 1.994 13.179 4.753 25.697 8.198 37.61-4.915 1.378-14.123 2.802-20.106-1.08zm23.64-89.49c27.932-5.099 141.427-24.721 234.194-24.998 87.369.276 194.276 19.758 221.135 24.931-.791 81.354-23.383 142.395-67.194 181.509-56.402 50.356-142.135 49.984-156.472 50.185-22.289 0-104.817.687-164.598-53.76-43.392-39.521-66.237-99.015-67.065-177.867zm38.798 302.625c2.501-27.791 41.705-66.827 61.019-83.451 7.734 3.927 15.51 7.274 23.219 10.142 4.92 10.091 21.436 37.886 54.432 39.423-3.272 12.441-5.023 26.264-1.117 36.568 2.085 5.502 4.856 9.08 7.762 11.399a144.73 144.73 0 00-12.464 5.195c-6.433-.315-30.412-3.238-45.52-25.306a7.913 7.913 0 10-13.061 8.939c6.913 10.099 15.219 17.008 23.434 21.771-16.848 28.575-18.87 52.037-19.051 59.48-30.597-2.127-52.446-9.63-65.09-22.494-16.158-16.441-15.561-39.478-13.563-61.666zM187.1 720.596c2.227-3.776 18.055-7.272 41.659-.773 31.968 8.801 135.191 34.876 161.037 41.393.392 8.663 1.838 17.849 5.259 26.738-74.303-13.9-185.257-39.336-201.316-55.776-6.163-6.306-7.346-10.381-6.639-11.582zm217.654 85.231c.273.049.541.052.812.073 1.042 1.242 2.109 2.476 3.285 3.673 18.375 18.694 49.639 27.899 95.139 27.896 9.253 0 19.099-.379 29.541-1.139 2.909-.211 5.308-1.989 6.507-4.436 6.271 4.061 15.776 7.994 29.101 7.994 6.195 0 13.231-.868 21.134-2.952 10.096 10.089 41.384 36.703 96.119 43.924-36.397 4.612-83.937 6.051-136.743 3.844-62.021-2.593-111.889-9.444-135.486-16.028a7.865 7.865 0 00-5.334-2.355 8.247 8.247 0 00-1.666.129c-2.409-.893-4.318-1.772-5.624-2.623-19.053-12.411-5.854-45.864.092-58.565 1.264.23 2.33.423 3.123.565zm-9.926 72.39c1.591.863 3.457 1.712 5.594 2.546-.555 18.645-1.359 57.65.164 93.604-14.634-40.045-8.99-80.284-5.758-96.15zm154.283 243.532c2.84 2.545 5.171 6.34 5.046 7.458-.027.052-3.38 4.967-27.851 4.967h-.519c-22.068-.062-25.161-4.776-25.18-4.825-.554-1.52 3.136-7.682 8.728-12.406.285-.24.519-.514.762-.783 6.926 1.703 16.757 3.351 28.893 3.351 2.628 0 5.402-.113 8.241-.283a7.923 7.923 0 001.88 2.521zm9.113-19.589c-27.296 4.25-46.52-1.695-51.677-3.576l-19.932-22.167c22.671 5.59 48.265 10.575 73.572 14.082l-1.963 11.661zm99.96 32.013c-24.934-.018-28.313-4.876-28.339-4.876-.155-1.208 2.177-5.003 4.992-7.527.336-.296.62-.626.894-.962 7.507 1.314 16.621 2.451 25.776 2.451 5.374 0 10.75-.4 15.813-1.376 3.132 2.946 5.811 6.452 6.047 8.115-.818.759-5.548 4.121-25.183 4.175zm22.466-29.591c-13.988 5.621-39.086 1.661-52.595-1.507l-.727-6.887c4.498.123 9.022.2 13.569.2 14.581-.001 29.325-.708 43.756-2.32l-4.003 10.514zm89.531-57.58c-47.412 40.508-144.289 35.65-197.84 29.135-79.145-9.619-141.015-31.281-147.051-38.19-9.021-11.871-10.748-92.694-9.167-152.409 38.037 9.368 109.649 15.84 178.403 15.84 58.528-.003 114.975-4.7 146.852-16.289 8.197.542 17.01 1.11 26.216 1.681 6.556 69.362 9.379 149.632 2.587 160.232zm241.123-230.7c-19.228 15.59-65.04 52.353-75.087 58.682-11.628 4.276-106.46.809-236.471-8.648-65.43-4.758-98.386-40.531-100.805-43.26-1.016-1.487-8.792-14.279 5.615-36.371 2.305 9.172 6.765 18.227 13.358 26.405 22.651 28.097 109.809 37.695 135.982 39.967a701.58 701.58 0 0060.344 2.63c45.529-.003 87.197-4.637 115.992-13.357 41.862-12.678 63.665-32.306 72.326-50.683 6.078.62 7.818 3.107 8.439 3.997 3.684 5.284 1.796 15.498.307 20.638z"/></svg>