<?xml version="1.0" encoding="utf-8"?>
<!-- Designed by Vexels.com - 2019 All Rights Reserved - https://vexels.com/terms-and-conditions/  -->
<svg version="1.1" id="Layer_1" xmlns="http://www.w3.org/2000/svg" xmlns:xlink="http://www.w3.org/1999/xlink" x="0px" y="0px"
	 viewBox="0 0 1200 1200" enable-background="new 0 0 1200 1200" xml:space="preserve">
<g>
	<g>
		<g>
			<path fill="#EBB29B" d="M360.792,428.035v49.813c0,0-36.78-2.962-31.023,28.074c5.757,31.037,24.507,33.498,44.929,23.815
				c0,0,35.262,154.643,223.896,141.235c199.525-7.175,219.947-141.235,219.947-141.235s35.739,14.313,41.866-21.426
				c6.127-35.739-30.123-27.059-30.123-27.059l1.021-49.013C831.305,432.238,633.137,360.523,360.792,428.035z"/>
			<path fill="#EBB29B" d="M540.796,763.078c0,0-11.741,47.888-3.572,57.896c8.169,10.008,40.003,16.557,50.89,3.072
				c0,0-6.26-29.319,12.592-50.246C625.083,746.741,551.621,752.515,540.796,763.078z"/>
			<path fill="#EBB29B" d="M892.571,675.263c0,0-52.077-17.359-59.224-35.228c-7.148-17.869-6.127-49.013,22.464-42.376
				c0,0,22.468-27.066,40.844,2.342c0,0,15.482-26.831,27.57-8.041C936.314,610.749,910.441,661.478,892.571,675.263z"/>
		</g>
		<g>
			<path fill="#F0CAB4" d="M420.307,525.33c10.551,31.654,26.379,68.585,65.947,73.86c31.654,7.914,68.585-13.189,94.963-7.914
				c71.223,13.189,163.548,18.465,192.565-58.033c10.672-30.492,21.313-74.189,17.725-112.273
				c-65.2-15.662-205.453-38.379-382.772-3.568C396.925,451.584,409.493,492.887,420.307,525.33z"/>
			<path fill="#F0CAB4" d="M586.493,802.306c0.444-0.111,0.919-0.216,1.406-0.319c1.364-8.998,4.837-19.339,12.807-28.187
				c24.377-27.059-49.085-21.285-59.91-10.722c0,0-3.458,14.121-5.314,28.628C550.482,801.441,569.563,805.692,586.493,802.306z"/>
			<path fill="#F0CAB4" d="M892.571,675.263c0,0-52.077-17.359-59.224-35.228c-7.148-17.869-6.127-49.013,22.464-42.376
				c0,0,22.468-27.066,40.844,2.342c0,0,15.482-26.831,27.57-8.041C936.314,610.749,910.441,661.478,892.571,675.263z"/>
		</g>
	</g>
	<path fill="#755840" d="M600.706,558.362c0,0-24.509-16.525-53.1-2.91c-28.591,13.615-57.925,42.018-78.316,39.048
		c0,0,55.769,59.659,130.153,12.007c0,0,63.208,42.887,129.24-11.573c0,0-31.754-12.282-71.478-36.573
		C631.337,542.544,600.706,558.362,600.706,558.362z"/>
	<path fill="#896A4C" d="M594.407,586.001c37.367,8.897,73.521,9.367,102.01-5.826c-11.232-5.658-24.684-12.928-39.212-21.812
		c-25.868-15.818-56.499,0-56.499,0s-24.509-16.525-53.1-2.91c-15.101,7.191-30.408,18.505-44.497,27.146
		c7.699,5.181,17.215,8.604,25.351,11.316C552.201,601.828,583.855,583.363,594.407,586.001z"/>
	<g>
		<ellipse fill="#E6988F" cx="469.942" cy="534.16" rx="33.553" ry="22.473"/>
		<ellipse fill="#E6988F" cx="741.642" cy="534.16" rx="33.553" ry="22.473"/>
	</g>
	<g>
		<g>
			<path fill="#E5E0B9" d="M831.305,432.238c0,0-224.376-73.076-470.513-4.203l-9.228-91.781c0,0-54.532-166.01,117.726-232.768
				s232.199-53.913,322.927,4.833s158.387,113.57,150.218,227.935C934.267,437.352,831.305,432.238,831.305,432.238z"/>
			<path fill="#E5E0B9" d="M464.215,644.629c0,0,125.539,57.182,270.566,0c0,0,37.937,45.62,70.111,41.999
				c32.173-3.622,41.396-33.095,41.396-33.095l51.9,25.874c0,0-4.453,41.178-19.707,51.192c0,0-242.417-58.293-270.491,29.526
				c0,0-42.689-22.935-67.194,7.878c0,0-17.357,42.451-3.572,52.97c13.785,10.519,31.654,18.688,53.608,6.434
				c0,0,74.482,64.053,183.26,49.386c0,0,10.2,151.773,1.103,172.196c-9.097,20.422-77.367,35.739-77.367,35.739l-14.461,30.306
				l-59.538-7.623l-5.338-21.663h-49.513c0,0,2.427,29.979-8.792,29.285c-11.219-0.694-59.579,14.313-93.141-50.59
				c0,0-49.003-15.455-51.444-36.899s-58.799-70.538-23.983-163.929c0,0-23.259-40.754,13.948-70.646c0,0-15.26-52.551,0-83.72
				S464.215,644.629,464.215,644.629z"/>
		</g>
		<g>
			<path fill="#F7F4DB" d="M623.423,314.3c-13.189-7.914-29.017-18.465-42.206-31.654c36.93-21.103,76.498-2.638,113.428-29.017
				c13.189-10.551,29.017-18.465,34.292-31.654c15.827-39.568,29.017-87.05,7.914-123.98c-8.003-13.338-18.203-23.633-29.865-31.711
				c-57.428-16.445-122.257-7.472-237.045,36.952c-43.6,44.002-62.803,114.598-57.548,179.41
				c2.225,40.047-19.944,89.477-12.696,135.628c165.79-37.099,316.483-13.569,387.947,2.54
				C765.758,361.27,678.367,345.355,623.423,314.3z"/>
			<path fill="#F7F4DB" d="M639.25,981.681c-39.568-34.292-94.963-31.654-147.721-47.482c-23.741-5.276-50.12-26.379-55.395-58.033
				c23.741-2.638,47.482-29.017,31.654-39.568c-18.545-14.424-43.505-25.655-63.611-42.442
				c-35.173,29.773-12.561,69.461-12.561,69.461c-34.816,93.391,21.542,142.486,23.983,163.929
				c2.441,21.443,51.444,36.899,51.444,36.899c0.064,0.125,0.131,0.236,0.196,0.359c33.968,7.578,67.937,15.346,101.905,24.23
				c-0.066-2.006-0.167-3.285-0.167-3.285h49.513l0.512,2.079c25.89,1.798,52.915-7.262,79.3-3.209
				c2.486-0.575,15.098-3.567,29.498-8.307C711.157,1037.109,671.075,1008.202,639.25,981.681z"/>
			<path fill="#F7F4DB" d="M532.13,801.301c1.366-15.426,8.666-33.297,8.666-33.297c0.88-1.106,1.789-2.124,2.712-3.096
				c-17.582-3.697-34.323-11.299-44.065-25.911c-17.143-28.572-23.289-62.641-40.275-90.298
				c-11.872,9.822-41.531,35.893-53.604,60.552c-7.44,15.198-7.619,35.468-5.855,52.262
				C430.675,801.075,483.432,811.692,532.13,801.301z"/>
			<path fill="#F7F4DB" d="M846.287,653.533c0,0-9.222,29.473-41.395,33.095c-4.403,0.496-8.913,0.044-13.419-1.061
				c-7.187,11.291-15.874,21.238-26.217,27.626c59.676,4.532,113.225,17.406,113.225,17.406
				c15.254-10.014,19.707-51.192,19.707-51.192L846.287,653.533z"/>
		</g>
	</g>
	<g>
		<path fill="#3B694D" d="M834.453,406.625c-143.211-57.803-322.818-53.459-476.844-10.252l3.183,31.662
			c246.137-68.873,470.513,4.203,470.513,4.203s2.156,0.105,5.854-0.017C839.081,419.57,839.858,408.807,834.453,406.625z"/>
		<path fill="#467C5A" d="M398.985,385.868c-1.186,11.047-2.118,21.943-2.011,33.011c161.272-36.7,308.596-15.787,383.161,0.281
			c-5.969-13.483-13.633-26.143-23.146-37.106C643.319,354.778,515.678,359.172,398.985,385.868z"/>
	</g>
	<g>
		<path fill="#A12A28" d="M697.829,340.338c44.582,11.608,81.229,31.995,128.711,29.357c-7.914-26.379-39.568-42.206-63.309-52.757
			c-15.827-5.276-34.952,1.447-50.779-3.829c-68.228-4.107-144.423-51.566-223.559-41.015
			c-50.769,9.231-103.556,20.481-138.936,58.475c0.946,3.669,1.608,5.685,1.608,5.685l2.053,20.421
			C488.962,320.243,577.558,309.024,697.829,340.338z"/>
		<path fill="#BE2C2C" d="M610.785,288.902c-39.325-11.822-80.2-22.367-121.893-16.808c-25.395,4.617-51.294,9.74-75.268,18.462
			c-4.34,17.884-7.879,35.767-11.197,53.651c99.018-23.667,174.816-30.113,266.5-10.703
			C646.269,323.831,627.369,307.619,610.785,288.902z"/>
	</g>
	<path fill="#A12A28" d="M503.109,661.496c-1.48-0.534,6.194,36.024,50.863,33.115c0,0-17.258,43.28,7.249,51.449
		c17.699,5.657,36.875-24.661,36.875-24.661s16.971,24.153,45.141,7.136c28.17-17.017,16.692-30.808,16.692-30.808
		s45.885-7.526,52.523-45.87C712.451,651.858,615.863,702.188,503.109,661.496z"/>
	<g>
		<path fill="#B38436" d="M636.613,815.495c92.326,39.568,192.565,47.482,290.166,21.103c31.136-7.326,62.256-26.108,77.499-55.442
			c-2.321,0.202-3.979,0.651-3.979,0.651s10.211-34.875-42.887-39.566c-53.098-4.69-219.327-29.012-244.961-26.041
			c-25.634,2.971-95.125-5.198-98.671,47.899c0,0-0.76,0.54-2.006,1.524C612.044,785.943,617.132,805.755,636.613,815.495z"/>
		<path fill="#C5984C" d="M957.412,742.241c-53.098-4.69-219.327-29.012-244.961-26.041c-23.737,2.751-85.044-4.013-96.807,37.13
			c4.603,28.656,30.861,50.235,55.261,56.89c89.688,29.017,182.013,13.189,276.976-2.638c21.068-4.515,40.407-16.764,53.144-34.283
			C1000.379,762.658,993.609,745.439,957.412,742.241z M696.759,783.96c-37.407-9.549-33.912-45.601-10.026-47.601
			c87.05-7.914,279.87,26.274,258.511,36.93C858.194,831.323,726.994,788.824,696.759,783.96z"/>
	</g>
	<path fill="#EACA69" d="M683.368,787.955c64.92,20.394,135.427,24.412,204.824,12.871c77.388-12.871,70.359-31.315,32.756-34.687
		c-37.603-3.372-170.793-29.857-212.859-24.98C677.644,744.689,626.926,768.004,683.368,787.955z"/>
	<g>
		<path fill="#8B5D36" d="M404.178,794.156c0,0-167.002-26.602-199.788-47.393c-32.785-20.791-31.192-47.433,11.694-37.513
			c42.887,9.92,175.533,45.018,175.533,45.018L404.178,794.156z"/>
		<path fill="#8B5D36" d="M1019.7,794.804c0.099-13.114-9.72-14.144-15.423-13.648c-15.243,29.334-46.362,48.116-77.499,55.442
			c-97.601,26.379-197.84,18.465-290.166-21.103c-19.481-9.74-24.569-29.552-24.839-49.872
			c-9.181,7.255-45.548,39.396-11.068,69.208c23.124,53.844,336.177,50.258,336.177,50.258S1023.784,832.656,1019.7,794.804z"/>
	</g>
	<g>
		<path fill="#AB7141" d="M391.618,754.268c0,0-132.646-35.098-175.533-45.018c-23.965-5.543-35.024,0.334-34.407,10.223
			c56.723,41.622,147.649,41.983,217.873,59.985L391.618,754.268z"/>
		<path fill="#AB7141" d="M1019.7,794.804c0.099-13.114-9.72-14.144-15.423-13.648c-15.243,29.334-46.362,48.116-77.499,55.442
			c-63.77,17.235-128.665,19.823-191.744,8.515c56.469,25.523,125.303,24.576,189.106,33.69c5.466,0,9.664,2.536,13.482,5.831
			C945.785,879.606,1023.57,830.674,1019.7,794.804z"/>
	</g>
	<g>
		<path fill="#CC4538" d="M780.845,750.364c-6.192,3.288-9.407,10.608-4.981,16.781c4.506,6.284,13.927,7.655,21.029,6.686
			c0.268-0.037,0.55-0.087,0.831-0.136c9.822,0.592,19.811-2.398,22.008-11.251C823.983,745.318,789.606,745.712,780.845,750.364z"
			/>
		<path fill="#CC4538" d="M688.952,755.972c-6.98-4.55-16.058-9.859-24.28-5.116c-15.876,9.159,1.757,27.986,15.525,28.17
			c1.588,0.413,3.168,0.773,4.697,1.018c6.06,0.975,16.3,1.71,17.887-6.389C704.38,765.49,694.584,759.643,688.952,755.972z"/>
		<path fill="#CC4538" d="M905.01,757.128c-8.001-2.338-31.683-4.174-28.532,10.486c2.077,9.665,13.196,14.915,23.448,16.56
			c0.989,0.419,1.995,0.813,3.028,1.166c5.341,1.829,12.533,3.946,16.75-1.153C928.578,773.457,914.786,759.985,905.01,757.128z"/>
	</g>
	<g>
		<path fill="#879433" d="M865.156,789.166c-8.323-5.964-19.729-6.621-29.517-5.232c-4.167,0.591-5.581,4.868-4.53,7.851
			c0.304,5.98,5.203,11.758,10.238,14.617c4.775,2.71,10.289,3.588,15.706,3.825c4.069,0.177,9.839,0.928,13.16-2.026
			C876.503,802.605,870.47,792.975,865.156,789.166z"/>
		<path fill="#879433" d="M742.391,760.55c0.944-0.154,1.721-0.58,2.332-1.157c3.931,0.045,7.377-3.018,8.076-7.069
			c1.67-9.683-12.532-17.926-19.995-20.733c-10.379-3.904-18.024,3.882-14.074,14.081
			C722.23,754.709,732.445,762.168,742.391,760.55z"/>
		<path fill="#879433" d="M769.271,790.843c-1.195-0.398-2.398-0.764-3.601-1.13c-7.792-4.738-22.907-8.981-28.642-0.339
			c-2.407,3.626-1.739,8.301,1.005,11.581c3.595,4.297,9.558,4.713,14.698,5.579c7.582,1.277,24.898,6.594,26.405-5.948
			C779.931,793.968,774.41,792.552,769.271,790.843z"/>
	</g>
	<g>
		<path fill="#3E3239" d="M849.3,754.173c-3.072-0.924-7.032-1.584-10.191-0.741c-3.891,1.039-6.517,4.813-5.383,8.859
			c0.845,3.018,2.913,5.04,5.46,6.175c4.051,3.149,9.794,4.421,14.346,1.946c3.19-1.734,4.644-5.432,3.804-8.903
			C856.388,757.597,852.952,755.271,849.3,754.173z"/>
		<path fill="#3E3239" d="M723.398,764.246c-8.075,1.896-7.444,12.378-0.651,15.499c4.144,1.904,9.637,2.332,13.393,0.051
			c0.051-0.029,0.102-0.042,0.154-0.072c1.413-0.827,2.457-2.055,3.054-3.478c0.256-0.53,0.485-1.089,0.652-1.714
			c0.359-1.344,0.029-2.708-0.701-3.85C736.981,765.427,728.365,763.081,723.398,764.246z"/>
		<path fill="#3E3239" d="M702.663,738.321c-3.3-2.612-8.444-4.614-12.352-2.101c-4.083,2.625-4.469,9.723,0.074,12.174
			c0.079,0.043,0.168,0.079,0.25,0.12c1.691,2.098,3.897,3.781,6.468,4.625c4.129,1.355,8.674-0.06,9.844-4.609
			C707.969,744.551,705.687,740.714,702.663,738.321z"/>
		<path fill="#3E3239" d="M810.268,786.266c-1.036,0.118-1.9,0.461-2.571,0.985c-0.17,0.075-0.348,0.144-0.515,0.221
			c-3.622,1.662-8.234,3.561-7.941,8.395c0.293,4.824,5.653,6.85,9.793,6.166c2.66-0.439,4.793-1.782,6.679-3.502
			c2.049-1.296,3.751-3.298,4.853-5.724c0.706-1.554,0.068-3.622-1.003-4.828C817.021,785.117,813.534,785.248,810.268,786.266z"/>
		<path fill="#3E3239" d="M894.947,782.22c-4.777-2.085-11.997-1.867-15.747,2.188c-2.04,2.206-2.427,5.684-0.896,8.282
			c1.506,2.555,3.971,3.496,6.701,3.254c3.332,0.964,6.668,1.227,10.088-0.694c2.513-1.412,4.786-3.841,4.657-6.904
			C899.626,785.399,897.518,783.342,894.947,782.22z"/>
		<path fill="#3E3239" d="M778.542,738.896c-2.352-0.898-5.096-0.85-7.549-0.494c-2.78,0.403-5.412,1.706-6.792,4.244
			c-1.418,2.607-0.814,5.749,0.974,7.997c3.855,4.846,10.434,3.413,14.491-0.335c0.438-0.404,0.75-0.847,0.993-1.304
			c0.742-0.681,1.343-1.508,1.702-2.521C783.473,743.345,781.515,740.031,778.542,738.896z"/>
	</g>
	<path fill="#3E3239" d="M503.067,1110.256l51.095,5.083c0,0,24.773,32.305-19.828,28.954
		C489.733,1140.942,484.396,1127.955,503.067,1110.256z"/>
	<path fill="#3E3239" d="M629.838,1110.256l54.814,2.087c0,0,22.311,33.8-26.734,32.194
		C608.872,1142.932,629.838,1110.256,629.838,1110.256z"/>
	<g>
		<path fill="#3F2019" d="M481.463,521.844c1.68-1.057,16.889-9.901,32.708,5.627c1.54,1.512,3.542,2.266,5.544,2.266
			c2.049,0,4.098-0.792,5.648-2.37c3.062-3.12,3.014-8.13-0.104-11.192c-20.277-19.9-43.153-13.675-52.414-7.607
			c-3.632,2.38-4.636,7.223-2.289,10.876C472.905,523.099,477.787,524.158,481.463,521.844z"/>
		<path fill="#442C26" d="M659.599,631.674c48.15,0,78.352-33.091,81.053-36.171c1.831-1.204,3.66-2.616,5.487-4.284
			c0.399-0.365,0.76-0.769,1.077-1.208c6.685-9.253,6.064-16.386,4.366-20.741c-3.841-9.843-15.564-12.499-16.889-12.769
			c-4.292-0.867-8.465,1.888-9.338,6.171c-0.873,4.281,1.888,8.462,6.17,9.337c1.579,0.322,4.83,1.781,5.312,3.013
			c0.152,0.393,0.057,2.034-1.989,5.062c-11.371,9.877-21.646,4.687-45.359-11.127c-8.931-5.957-19.055-12.709-30.232-18.027
			c-29.612-14.086-49.637-7.245-58.55-2.297c-8.914-4.948-28.941-11.789-58.548,2.297c-11.18,5.318-21.303,12.07-30.234,18.027
			c-23.712,15.816-33.993,21.003-45.36,11.127c-2.04-3.019-2.141-4.66-1.99-5.055c0.424-1.113,3.287-2.57,5.313-3.019
			c4.283-0.875,7.046-5.055,6.171-9.337s-5.062-7.04-9.337-6.171c-1.325,0.27-13.052,2.926-16.89,12.769
			c-1.699,4.355-2.32,11.488,4.365,20.741c0.317,0.439,0.677,0.844,1.077,1.209c1.827,1.669,3.657,3.081,5.488,4.285
			c2.706,3.089,32.9,36.17,81.053,36.17c17.431,0,37.213-4.342,58.892-16.011C622.389,627.334,642.165,631.674,659.599,631.674z
			 M488.962,599.285c10.675-3.113,21.297-10.196,31.744-17.164c8.9-5.935,18.103-12.074,28.25-16.901
			c30.113-14.324,45.69-1.87,46.509-1.186c0.567,0.496,1.196,0.861,1.845,1.167c0.047,0.023,0.095,0.042,0.143,0.064
			c0.395,0.177,0.795,0.323,1.208,0.432c0.127,0.034,0.253,0.059,0.381,0.087c0.332,0.07,0.663,0.125,1,0.152
			c0.227,0.02,0.453,0.023,0.682,0.023c0.236-0.002,0.469-0.006,0.703-0.028c0.328-0.028,0.649-0.083,0.972-0.152
			c0.135-0.03,0.267-0.058,0.401-0.095c0.402-0.108,0.791-0.252,1.176-0.425c0.053-0.024,0.107-0.047,0.16-0.073
			c0.665-0.317,1.309-0.697,1.886-1.214c0.152-0.134,16.056-13.202,46.436,1.249c10.147,4.828,19.351,10.966,28.251,16.903
			c10.449,6.969,21.069,14.051,31.744,17.164c-19.762,13.624-56.533,28.443-105.055,1.944c-1.659-2.008-4.162-3.022-6.678-2.833
			c-2.524-0.198-5.04,0.817-6.703,2.833C545.496,627.724,508.725,612.907,488.962,599.285z"/>
		<path fill="#3F2019" d="M684.336,529.737c2.002,0,4.003-0.753,5.544-2.266c15.799-15.505,30.979-6.713,32.7-5.633
			c3.648,2.358,8.524,1.324,10.904-2.313c2.396-3.655,1.376-8.561-2.28-10.957c-9.261-6.07-32.134-12.29-52.412,7.607
			c-3.12,3.062-3.166,8.072-0.103,11.192C680.238,528.945,682.286,529.737,684.336,529.737z"/>
		<path fill="#3F2019" d="M1006.921,776.319c0.265-2.704,0.264-5.321-0.009-7.808c-1.718-15.616-13.555-26.912-29.457-28.107
			c-16.86-1.269-49.514-5.966-85.255-11.378c10.367-19.726,12.727-46.919,12.839-48.278c0.172-2.092-0.508-4.108-1.792-5.668
			c18.824-16.758,32.203-47.228,33.431-68.331c0.845-14.517-4.021-21.869-8.254-25.48c-6.96-5.938-13.31-5.688-17.404-4.421
			c-6.01,1.853-10.513,7.034-13.717,12.449c-7.651-9.294-18.692-16.573-31.58-11.232c-7.955,3.295-11.466,7.76-12.939,11.614
			c-5.09-1.2-10.312-0.788-14.993,1.274c-5.603,2.464-13.058,8.482-16.757,23.155c-5.002,19.843,8.864,35.223,15.604,41.316
			c-0.824,4.912-4.744,15.532-22.806,22.997c-16.852,6.966-48.588-16.139-67.928-35.057c6.952-4.665,13.792-9.902,20.418-15.807
			c25.457-22.685,44.217-52.02,56.317-87.611c3.212,0.938,8.193,2.053,13.77,2.053c5.575,0,11.729-1.115,17.265-4.641
			c9.235-5.882,14.266-16.556,14.954-31.727c0.708-15.642-3.3-26.402-11.909-31.983c-6.341-4.107-13.62-4.315-19.696-3.33
			c0.821-8.571,1.435-17.332,1.715-26.391c56.474-4.298,84.39-36.072,97.928-62.609c27.309-53.53,16.994-124.778-8.753-162.734
			c-44.107-65.023-139.596-130.12-207.047-158.356c-34.419-14.41-94.216-13.55-159.962,2.3
			c-67.677,16.314-128.814,45.025-167.735,78.773c-83.939,72.781-52.019,198.46-50.619,203.774c0.634,2.408,2.327,4.23,4.435,5.174
			c-5.94,33.461,3.192,71.568,4.965,78.443c-0.03,14.492,0.668,28.372,2.018,41.692c-6.613-1.101-14.707-0.951-21.571,3.62
			c-8.581,5.711-12.56,16.359-11.828,31.648c0.708,14.794,5.741,25.328,14.959,31.307c5.927,3.843,12.623,5.04,18.665,5.04
			c6.138,0,11.59-1.234,14.883-2.183c12.077,33.732,30.481,61.845,55.202,84.022c9.209,8.261,18.862,15.299,28.704,21.333
			c-18.272,16.371-59.128,56.472-62.165,90.228c-0.262,2.906-0.541,6.136-0.763,9.56c-30.649-7.733-126.592-31.999-157.091-40.395
			c-23.46-6.461-50.95-6.494-59.492,7.993c-3.61,6.121-4.99,16.415,8.948,30.683c22.089,22.611,151.658,49.195,203.121,59.016
			c-6.586,14.925-16.194,43.64-3.863,63.478c-0.145,0.325-0.299,0.644-0.402,0.994c-0.961,3.297-23.032,81.55,21.586,146.507
			c0.229,0.334,0.517,0.597,0.785,0.884c1.973,15.641,4.863,27.904,9.044,33.406c4.788,6.302,21.986,13.879,45.672,21.142
			l36.329,40.402c-5.347,5.662-12.581,15.666-8.964,25.666c4.92,13.596,25.195,15.224,40.019,15.266c0.188,0,0.372,0,0.56,0
			c25.164,0,38.723-4.82,42.641-15.155c2.55-6.726-0.129-13.234-3.28-17.937c0.33-0.063,0.642-0.102,0.974-0.168
			c3.225-0.639,5.719-3.205,6.265-6.448l2.998-17.812c1.431,0.163,2.865,0.331,4.29,0.483c9.933,1.061,20.395,1.946,31.15,2.554
			l1.551,14.691c0.329,3.115,2.47,5.717,5.429,6.68c-3.157,4.704-5.847,11.222-3.293,17.957
			c3.918,10.335,17.473,15.155,42.641,15.155c0.185,0,0.374,0,0.562,0c15.108-0.041,35.712-1.633,40.197-14.915
			c2.455-7.277-1.21-14.377-5.459-19.641c0.564-0.672,1.025-1.431,1.342-2.263l6.201-16.286c0.64-1.68,0.642-3.432,0.171-5.032
			c30.724-5.114,59.032-15.118,79.743-32.797c6.028-4.776,12.053-16.945,8.447-94.925c-1.53-33.067-4.318-65.518-5.298-76.402
			c19.024,1.126,39.035,2.208,58.154,3.059c28.573,1.273,48.937,1.759,63.546,1.759c32.592,0,36.528-2.424,38.996-3.941
			c12.713-7.829,76.132-59.313,78.827-61.5c1.1-0.896,1.942-2.071,2.434-3.4c0.86-2.329,8.127-23.153-1.522-37.056
			C1021.213,782.631,1016.084,777.971,1006.921,776.319z M991.177,770.242c1.468,13.339-10.683,40.351-65.532,56.961
			c-89.242,27.025-270.085,7.388-295.408-24.027c-9.359-11.608-16.883-31.142-7.293-47.999c6.126-10.77,26.832-31.531,95.242-31.531
			c19.058,0,41.83,1.613,69.007,5.502c20.258,2.898,44.548,6.628,68.036,10.237c48.285,7.414,98.214,15.083,121.041,16.798
			C984.706,756.821,990.28,762.073,991.177,770.242z M609.185,747.351c-0.808,1.421-1.517,2.883-2.172,4.366
			c-1.926-1.659-4.073-3.085-6.486-4.193c-4.529-2.079-9.625-3.006-14.903-3.167c4.819-4.318,9.076-9.312,12.446-13.757
			c4.35,4.004,9.602,7.329,15.709,9.98C611.997,742.825,610.471,745.092,609.185,747.351z M581.684,822.708
			c-27.269,5.539-37.755-7.865-38.356-8.671c-0.687-0.967-1.563-1.714-2.531-2.268c0.429-11.631,1.99-27.717,6.78-42
			c10.651-4.831,34.387-13.36,46.357-7.858c2.468,1.136,4.271,2.849,5.51,5.278C578.214,792.218,578.489,811.654,581.684,822.708z
			 M524.811,821.031c-8.371,0.467-16.26,0.631-23.758,0.554c0.117-5.119,1.615-26.902,17.769-53.581
			c4.379,1.441,8.432,2.371,11.851,2.949C525.398,790.124,524.717,810.238,524.811,821.031z M514.587,670.972
			c14.065,3.654,27.444,5.859,39.385,7.136c-1.058,2.431-2.328,5.499-3.647,9.012C533.699,687.85,522.052,679.478,514.587,670.972z
			 M652.903,677.427c13.658-1.845,29.017-5.068,44.925-10.479c-12.018,12.773-27.807,19.744-36.277,22.792
			C659.065,684.756,656.024,680.703,652.903,677.427z M628.48,679.54c0.492,0.311,1.017,0.583,1.589,0.785
			c0.218,0.074,21.499,7.932,21.504,36.155c-10.225,3.365-18.383,7.498-24.854,12.055c-0.008-0.002-0.015-0.007-0.022-0.009
			c-12.105-3.627-20.387-9.83-24.617-18.437c-5.629-11.456-3.144-24.813-1.482-30.957c0.503-0.039,0.955-0.076,1.36-0.111
			c3.059,0.279,9.022,0.701,17.191,0.701C622.004,679.722,625.131,679.668,628.48,679.54z M587.809,716.936
			c0.092,0.189,0.211,0.358,0.305,0.545c-0.097,0.122-0.212,0.22-0.303,0.349c-11.577,16.417-21.154,21.719-24.791,21.234
			c-1.946-0.245-3.399-3.349-4.092-5.178c-4.665-12.308,4.757-39.877,11.793-54.362c0.019-0.038,0.025-0.079,0.043-0.117
			c4.739,0.224,9.109,0.318,12.994,0.318c0.151,0,0.294-0.001,0.444-0.002C582.339,688.991,581.241,703.458,587.809,716.936z
			 M850.669,664.052l38.028,20.482c-1.44,10.765-5.219,29.323-12.517,40.635c-22.888-6.839-35.042-31.971-39.115-42.162
			C844.744,676.67,848.678,669.802,850.669,664.052z M836.382,617.977c1.667-6.61,4.431-11.062,7.782-12.538
			c2.926-1.285,5.907-0.204,7.352,0.51c0.729,1.45,0.92,5.77,1.015,7.903c0.237,5.348,0.505,11.412,5.922,14.271
			c1.855,0.982,5.69,2.174,10.539-0.829c3.733-2.313,6.121-5.737,6.909-9.902c1.597-8.447-4.24-16.784-5.425-18.37
			c-0.314-0.417-0.665-0.802-1.054-1.15c-0.523-0.468-1.582-1.896-1.775-2.653c0.273-0.34,1.27-1.345,4.135-2.532
			c8.328-3.457,17.643,12.495,19.678,16.939c1.373,3.035,4.49,4.902,7.826,4.616c3.321-0.258,6.126-2.576,7.012-5.786
			c2.112-7.642,6.672-15.652,9.385-16.484c0.335-0.09,1.226,0.281,2.468,1.337c2.061,1.758,3.081,6.44,2.728,12.522
			c-1.105,18.965-15.059,48.624-32.23,60.699l-39.63-21.344C846.751,643.376,832.93,631.669,836.382,617.977z M807.013,695.49
			c4.446,0,8.771-0.75,12.862-2.442c1.226-0.505,2.401-1.025,3.537-1.559c3.286,7.72,9.377,19.548,18.95,29.909
			c-18.557-2.842-36.972-5.634-52.928-7.918c-55.414-7.93-94.532-6.935-122.144-1.164c-0.151-2.629-0.442-5.121-0.856-7.484
			c13.5-4.743,42.709-17.903,56.278-46.358c0.323-0.676,0.504-1.377,0.624-2.08c2.897-1.429,5.792-2.933,8.678-4.537
			C742.362,662.334,777.451,695.495,807.013,695.49z M604.114,393.368c-0.054-0.001-0.104-0.016-0.157-0.016
			c-0.659,0-1.323,0.005-1.984,0.007c-0.625-0.002-1.254-0.007-1.878-0.007c-0.051,0-0.098,0.014-0.149,0.015
			c-92.636,0.546-204.489,19.711-234.11,25.091c-4.686-22.005-15.422-88.615,22.62-102.466c8.589-3.126,17.142-6.721,26.198-10.526
			c46.899-19.705,100.06-42.038,186.6-10.608c70.141,25.473,121.55,33.952,162.577,25.449c6.088,7.192,18.147,19.334,36.656,28.948
			c-0.059,2.153,0.726,4.323,2.391,5.934c0.885,0.856,20.383,20.241,20.515,62.875C792.457,412.188,689.675,393.931,604.114,393.368
			z M848.132,486.945c3.442,2.251,5.106,8.634,4.683,17.97c-0.438,9.69-2.996,16.104-7.602,19.065
			c-5.366,3.454-13.418,2.174-17.95,0.854c3.279-11.955,5.888-24.534,7.781-37.768C839.019,485.773,844.694,484.7,848.132,486.945z
			 M403.536,153.26c82.077-71.163,247.582-105.061,311.218-78.433c65.344,27.356,157.669,90.15,200.061,152.642
			c22.664,33.411,32.072,98.982,7.751,146.657c-16.333,32.018-45.144,50.535-83.619,53.909c0-0.055,0.002-0.107,0.002-0.162
			c1.895-32.908-6.504-55.59-14.113-69.055c2.719,0.754,5.517,1.443,8.414,2.04c0.541,0.112,1.077,0.165,1.607,0.165
			c3.676,0,6.971-2.575,7.744-6.316c0.881-4.28-1.873-8.466-6.152-9.348c-27.197-5.611-45.55-19.955-55.424-29.818
			c13.869-4.876,26.539-11.971,38.383-21.333c3.429-2.71,4.011-7.687,1.301-11.116c-2.707-3.43-7.687-4.013-11.116-1.301
			c-12.24,9.674-25.598,16.62-40.622,20.859c-2.384-1.067-5.238-0.948-7.584,0.597c-0.692,0.455-1.256,1.022-1.752,1.632
			c-37.957,7.576-86.307-0.683-152.978-24.896c-92.371-33.541-151.013-8.905-198.134,10.893c-8.874,3.729-17.257,7.25-25.484,10.246
			c-13.355,4.862-22.278,13.892-28.124,24.975C349.417,291.663,343.064,205.693,403.536,153.26z M344.139,523.68
			c-4.7-3.049-7.312-9.368-7.763-18.785c-0.307-6.41,0.27-14.685,4.767-17.701c3.881-2.605,10.443-1.434,14.904-0.044
			c1.994,13.179,4.753,25.697,8.198,37.61C359.33,526.138,350.122,527.562,344.139,523.68z M367.779,434.19
			c27.932-5.099,141.427-24.721,234.194-24.998c87.369,0.276,194.276,19.758,221.135,24.931
			c-0.791,81.354-23.383,142.395-67.194,181.509c-56.402,50.356-142.135,49.984-156.472,50.185
			c-22.289,0-104.817,0.687-164.598-53.76C391.452,572.536,368.607,513.042,367.779,434.19z M406.577,736.815
			c2.501-27.791,41.705-66.827,61.019-83.451c7.734,3.927,15.51,7.274,23.219,10.142c4.92,10.091,21.436,37.886,54.432,39.423
			c-3.272,12.441-5.023,26.264-1.117,36.568c2.085,5.502,4.856,9.08,7.762,11.399c-5.562,2.024-9.997,4.02-12.464,5.195
			c-6.433-0.315-30.412-3.238-45.52-25.306c-2.472-3.609-7.395-4.526-11.001-2.061c-3.606,2.468-4.529,7.393-2.06,11
			c6.913,10.099,15.219,17.008,23.434,21.771c-16.848,28.575-18.87,52.037-19.051,59.48c-30.597-2.127-52.446-9.63-65.09-22.494
			C403.982,782.04,404.579,759.003,406.577,736.815z M187.1,720.596c2.227-3.776,18.055-7.272,41.659-0.773
			c31.968,8.801,135.191,34.876,161.037,41.393c0.392,8.663,1.838,17.849,5.259,26.738c-74.303-13.9-185.257-39.336-201.316-55.776
			C187.576,725.872,186.393,721.797,187.1,720.596z M404.754,805.827c0.273,0.049,0.541,0.052,0.812,0.073
			c1.042,1.242,2.109,2.476,3.285,3.673c18.375,18.694,49.639,27.899,95.139,27.896c9.253,0,19.099-0.379,29.541-1.139
			c2.909-0.211,5.308-1.989,6.507-4.436c6.271,4.061,15.776,7.994,29.101,7.994c6.195,0,13.231-0.868,21.134-2.952
			c10.096,10.089,41.384,36.703,96.119,43.924c-36.397,4.612-83.937,6.051-136.743,3.844
			c-62.021-2.593-111.889-9.444-135.486-16.028c-1.369-1.384-3.236-2.282-5.334-2.355c-0.571-0.015-1.127,0.033-1.666,0.129
			c-2.409-0.893-4.318-1.772-5.624-2.623c-19.053-12.411-5.854-45.864,0.092-58.565
			C402.895,805.492,403.961,805.685,404.754,805.827z M394.828,878.217c1.591,0.863,3.457,1.712,5.594,2.546
			c-0.555,18.645-1.359,57.65,0.164,93.604C385.952,934.322,391.596,894.083,394.828,878.217z M549.111,1121.749
			c2.84,2.545,5.171,6.34,5.046,7.458c-0.027,0.052-3.38,4.967-27.851,4.967c-0.171,0-0.345,0-0.519,0
			c-22.068-0.062-25.161-4.776-25.18-4.825c-0.554-1.52,3.136-7.682,8.728-12.406c0.285-0.24,0.519-0.514,0.762-0.783
			c6.926,1.703,16.757,3.351,28.893,3.351c2.628,0,5.402-0.113,8.241-0.283C547.67,1120.158,548.297,1121.019,549.111,1121.749z
			 M558.224,1102.16c-27.296,4.25-46.52-1.695-51.677-3.576l-19.932-22.167c22.671,5.59,48.265,10.575,73.572,14.082
			L558.224,1102.16z M658.184,1134.173c-24.934-0.018-28.313-4.876-28.339-4.876c-0.155-1.208,2.177-5.003,4.992-7.527
			c0.336-0.296,0.62-0.626,0.894-0.962c7.507,1.314,16.621,2.451,25.776,2.451c5.374,0,10.75-0.4,15.813-1.376
			c3.132,2.946,5.811,6.452,6.047,8.115C682.549,1130.757,677.819,1134.119,658.184,1134.173z M680.65,1104.582
			c-13.988,5.621-39.086,1.661-52.595-1.507l-0.727-6.887c4.498,0.123,9.022,0.2,13.569,0.2c14.581-0.001,29.325-0.708,43.756-2.32
			L680.65,1104.582z M770.181,1047.002c-47.412,40.508-144.289,35.65-197.84,29.135c-79.145-9.619-141.015-31.281-147.051-38.19
			c-9.021-11.871-10.748-92.694-9.167-152.409c38.037,9.368,109.649,15.84,178.403,15.84c58.528-0.003,114.975-4.7,146.852-16.289
			c8.197,0.542,17.01,1.11,26.216,1.681C774.15,956.132,776.973,1036.402,770.181,1047.002z M1011.304,816.302
			c-19.228,15.59-65.04,52.353-75.087,58.682c-11.628,4.276-106.46,0.809-236.471-8.648c-65.43-4.758-98.386-40.531-100.805-43.26
			c-1.016-1.487-8.792-14.279,5.615-36.371c2.305,9.172,6.765,18.227,13.358,26.405c22.651,28.097,109.809,37.695,135.982,39.967
			c20.356,1.767,40.707,2.63,60.344,2.63c45.529-0.003,87.197-4.637,115.992-13.357c41.862-12.678,63.665-32.306,72.326-50.683
			c6.078,0.62,7.818,3.107,8.439,3.997C1014.681,800.948,1012.793,811.162,1011.304,816.302z"/>
	</g>
</g>
</svg>
